<svg version="1.1" xmlns="http://www.w3.org/2000/svg" width="100" height="100" viewBox="0 0 100 100"><path d="M41.354 11.458c-0.033 0.232 -0.122 0.427 -0.223 0.636l-0.053 0.111q-0.057 0.118 -0.113 0.237c-0.102 0.212 -0.203 0.425 -0.304 0.638l-0.063 0.132c-0.194 0.41 -0.382 0.823 -0.568 1.236 -0.3 0.664 -0.609 1.324 -0.923 1.982A91.302 91.302 0 0 0 38.307 18.151c-0.299 0.662 -0.607 1.319 -0.92 1.975A91.354 91.354 0 0 0 36.589 21.849c-0.283 0.627 -0.574 1.25 -0.869 1.872a176.823 176.823 0 0 0 -0.994 2.126c-0.192 0.417 -0.385 0.833 -0.578 1.25l-0.065 0.14a704.635 704.635 0 0 1 -0.91 1.955c-0.392 0.838 -0.781 1.678 -1.17 2.518l-0.319 0.689a604.688 604.688 0 0 1 -0.818 1.759l-0.045 0.096 -0.044 0.095c-0.392 0.839 -0.781 1.678 -1.17 2.518l-0.319 0.689a604.688 604.688 0 0 1 -0.818 1.759l-0.045 0.096 -0.044 0.095c-0.392 0.839 -0.781 1.678 -1.17 2.518l-0.255 0.55 -0.064 0.139a604.688 604.688 0 0 1 -0.818 1.759l-0.045 0.096 -0.044 0.095c-0.392 0.839 -0.781 1.678 -1.17 2.518l-0.255 0.55 -0.064 0.139a604.688 604.688 0 0 1 -0.818 1.759l-0.045 0.096 -0.044 0.095c-0.392 0.839 -0.781 1.678 -1.17 2.518l-0.255 0.55 -0.064 0.139a604.688 604.688 0 0 1 -0.862 1.854l-0.044 0.095c-0.392 0.839 -0.781 1.678 -1.17 2.518l-0.255 0.55 -0.064 0.139a604.688 604.688 0 0 1 -0.862 1.854l-0.044 0.095a737.5 737.5 0 0 0 -0.882 1.897l-0.167 0.36A1507.344 1507.344 0 0 0 16.25 65.625h-0.104q-0.372 -5.88 -0.745 -11.759l-0.011 -0.176 -0.357 -5.633 -0.012 -0.186 -0.379 -5.983 -0.444 -7.013 -0.011 -0.172q-0.087 -1.376 -0.174 -2.752 -0.088 -1.382 -0.175 -2.764l-0.104 -1.644q-0.035 -0.548 -0.069 -1.097l-0.04 -0.626q-0.018 -0.284 -0.036 -0.569 -0.01 -0.151 -0.019 -0.302l-0.011 -0.18 -0.01 -0.155c-0.006 -0.114 -0.007 -0.228 -0.007 -0.343 0.706 -0.344 1.416 -0.679 2.132 -1.003A109.74 109.74 0 0 0 17.448 22.448a115.99 115.99 0 0 1 1.852 -0.856c0.548 -0.248 1.094 -0.502 1.638 -0.759a116.198 116.198 0 0 1 1.852 -0.856A104.115 104.115 0 0 0 24.427 19.219a118.021 118.021 0 0 1 1.859 -0.859A111.146 111.146 0 0 0 27.865 17.63a117.604 117.604 0 0 1 1.686 -0.778c0.624 -0.282 1.244 -0.57 1.863 -0.863A103.75 103.75 0 0 1 33.047 15.234a115.729 115.729 0 0 0 1.768 -0.817l0.113 -0.053 0.113 -0.053a194.271 194.271 0 0 1 1.799 -0.837c0.345 -0.159 0.69 -0.318 1.036 -0.478l0.648 -0.299 0.132 -0.061a4248.646 4248.646 0 0 1 1.678 -0.774l0.377 -0.174 0.113 -0.052C41.208 11.458 41.208 11.458 41.354 11.458" fill="#F42DB1"/><path d="M58.646 11.458c0.226 0.033 0.408 0.114 0.613 0.212l0.104 0.049q0.111 0.053 0.222 0.106c0.2 0.096 0.4 0.191 0.6 0.286l0.125 0.059c0.407 0.193 0.817 0.379 1.227 0.564 0.622 0.281 1.24 0.568 1.856 0.86a103.646 103.646 0 0 0 1.634 0.755c0.622 0.281 1.24 0.568 1.856 0.86a103.646 103.646 0 0 0 1.634 0.755A109.531 109.531 0 0 1 70.26 16.771a118.021 118.021 0 0 0 1.859 0.859c0.563 0.255 1.123 0.515 1.683 0.778a111.823 111.823 0 0 0 1.582 0.729 117.813 117.813 0 0 1 1.887 0.874l0.113 0.053a194.219 194.219 0 0 0 1.799 0.837c0.345 0.159 0.69 0.318 1.035 0.477l0.657 0.303 0.133 0.062 0.905 0.417a1756.719 1756.719 0 0 1 3.178 1.469l0.108 0.05a158.229 158.229 0 0 1 0.833 0.39l0.124 0.059L86.458 24.271a1552.76 1552.76 0 0 1 -0.427 6.965l-0.087 1.374 -0.16 2.532 -0.219 3.453q-0.177 2.803 -0.355 5.606l-0.344 5.438 -0.011 0.17 -0.335 5.294Q84.187 60.364 83.854 65.625h-0.104c-0.432 -0.915 -0.862 -1.831 -1.286 -2.75 -0.219 -0.477 -0.44 -0.953 -0.661 -1.43l-0.065 -0.14a704.948 704.948 0 0 0 -0.91 -1.955c-0.392 -0.839 -0.781 -1.678 -1.17 -2.518l-0.319 -0.689a604.688 604.688 0 0 0 -0.862 -1.854l-0.044 -0.095c-0.392 -0.839 -0.781 -1.678 -1.17 -2.518l-0.319 -0.689a604.688 604.688 0 0 0 -0.862 -1.854l-0.044 -0.095c-0.392 -0.839 -0.781 -1.678 -1.17 -2.518l-0.319 -0.689a604.688 604.688 0 0 0 -0.862 -1.854l-0.044 -0.095c-0.392 -0.839 -0.781 -1.678 -1.17 -2.518l-0.319 -0.689a604.688 604.688 0 0 0 -0.862 -1.854l-0.044 -0.095c-0.392 -0.839 -0.781 -1.678 -1.17 -2.518l-0.319 -0.689a604.688 604.688 0 0 0 -0.862 -1.854l-0.044 -0.095c-0.392 -0.839 -0.781 -1.678 -1.17 -2.518l-0.319 -0.689a604.688 604.688 0 0 0 -0.862 -1.854l-0.044 -0.095c-0.392 -0.839 -0.781 -1.678 -1.17 -2.518l-0.255 -0.55 -0.064 -0.139a604.688 604.688 0 0 0 -0.818 -1.759l-0.045 -0.096 -0.044 -0.095c-0.392 -0.839 -0.781 -1.678 -1.17 -2.518l-0.255 -0.55 -0.064 -0.139a604.688 604.688 0 0 0 -0.818 -1.759l-0.045 -0.096 -0.044 -0.095c-0.392 -0.839 -0.781 -1.678 -1.17 -2.518l-0.255 -0.55 -0.064 -0.138a717.396 717.396 0 0 0 -1.003 -2.155l-0.078 -0.167a49.167 49.167 0 0 0 -0.184 -0.387l-0.051 -0.108a31.615 31.615 0 0 0 -0.099 -0.206c-0.07 -0.148 -0.113 -0.246 -0.113 -0.412" fill="#AD23F2"/><path d="m35.177 68.327 0.147 0 0.155 0q0.261 0 0.522 0 0.188 0 0.375 0 0.41 0 0.819 0 0.609 0 1.218 0 1.025 0 2.049 0 1.015 0.001 2.03 0.001h0.127l0.64 0q2.269 0 4.538 0.001 2.205 0.001 4.41 0.001h0.137l4.143 0.001h0.129q4.269 0.001 8.538 0.002l0.101 0.201 0.057 0.113c0.054 0.109 0.103 0.22 0.15 0.333l0.05 0.122 0.053 0.129 0.057 0.14q0.093 0.227 0.186 0.454l0.132 0.322q0.138 0.334 0.275 0.668c0.189 0.461 0.38 0.921 0.57 1.382q0.154 0.372 0.307 0.743l0.062 0.149q0.19 0.461 0.38 0.922l0.194 0.469q0.126 0.304 0.251 0.609c0.186 0.451 0.373 0.901 0.566 1.348l0.098 0.228a43.542 43.542 0 0 0 0.179 0.412l0.078 0.181 0.068 0.155c0.047 0.163 0.052 0.243 -0.012 0.4 -0.115 0.09 -0.115 0.09 -0.269 0.171l-0.172 0.093 -0.092 0.048c-0.129 0.067 -0.257 0.137 -0.386 0.206q-0.099 0.053 -0.198 0.107c-0.309 0.166 -0.612 0.343 -0.914 0.521 -0.439 0.258 -0.882 0.509 -1.328 0.755a63.021 63.021 0 0 0 -1.489 0.849c-0.423 0.248 -0.851 0.488 -1.28 0.727 -0.371 0.207 -0.739 0.419 -1.106 0.635 -0.5 0.294 -1.005 0.577 -1.513 0.857 -0.441 0.244 -0.876 0.495 -1.31 0.75 -0.423 0.248 -0.851 0.488 -1.28 0.727 -0.371 0.207 -0.739 0.419 -1.106 0.635 -0.5 0.294 -1.005 0.577 -1.513 0.857 -0.441 0.244 -0.876 0.495 -1.31 0.75 -0.423 0.248 -0.85 0.487 -1.278 0.726 -0.44 0.246 -0.876 0.498 -1.31 0.754a47.031 47.031 0 0 1 -0.286 0.167 18.281 18.281 0 0 0 -0.295 0.175l-0.151 0.088 -0.134 0.08c-0.174 0.066 -0.269 0.048 -0.448 -0.001 -0.135 -0.061 -0.135 -0.061 -0.271 -0.139l-0.155 -0.088 -0.166 -0.095c-0.057 -0.033 -0.115 -0.065 -0.174 -0.099 -0.44 -0.251 -0.878 -0.507 -1.315 -0.763 -0.429 -0.251 -0.862 -0.495 -1.297 -0.737 -0.476 -0.265 -0.948 -0.535 -1.421 -0.805q-0.381 -0.218 -0.763 -0.436l-0.467 -0.267 -0.189 -0.108q-0.186 -0.106 -0.372 -0.213l-0.091 -0.052 -0.636 -0.363q-0.413 -0.236 -0.825 -0.472l-0.461 -0.264 -0.092 -0.053c-0.429 -0.246 -0.86 -0.488 -1.292 -0.729 -0.476 -0.265 -0.948 -0.538 -1.418 -0.814 -0.371 -0.217 -0.745 -0.429 -1.121 -0.638a63.698 63.698 0 0 1 -1.276 -0.729c-0.472 -0.277 -0.948 -0.547 -1.426 -0.813 -0.561 -0.313 -1.119 -0.632 -1.677 -0.952q-0.347 -0.199 -0.694 -0.397l-0.496 -0.283q-0.134 -0.077 -0.269 -0.153l-0.155 -0.088A5.729 5.729 0 0 1 30.99 77.76c0.032 -0.261 0.114 -0.486 0.216 -0.726l0.051 -0.122q0.084 -0.201 0.169 -0.402l0.12 -0.286q0.094 -0.225 0.188 -0.45c0.211 -0.503 0.419 -1.006 0.626 -1.51q0.156 -0.379 0.313 -0.757l0.062 -0.151c0.243 -0.589 0.487 -1.177 0.732 -1.765q0.306 -0.737 0.609 -1.475l0.138 -0.335q0.101 -0.245 0.202 -0.491 0.093 -0.226 0.186 -0.451l0.056 -0.137 0.051 -0.125 0.045 -0.109c0.088 -0.193 0.23 -0.141 0.423 -0.142" fill="#EA075D"/><path d="M49.948 31.979h0.104c0.473 1.144 0.946 2.289 1.416 3.434l0.051 0.125 0.406 0.991q0.178 0.435 0.356 0.87l0.051 0.125c0.289 0.704 0.579 1.408 0.87 2.111a840.677 840.677 0 0 1 0.921 2.236l0.051 0.125q0.203 0.495 0.406 0.991 0.178 0.435 0.356 0.87l0.051 0.125c0.289 0.704 0.579 1.408 0.87 2.111a840.677 840.677 0 0 1 0.921 2.236l0.051 0.125q0.203 0.495 0.406 0.991l0.408 0.995a718.49 718.49 0 0 0 0.801 1.943c0.344 0.831 0.687 1.663 1.028 2.495l0.125 0.304q0.086 0.21 0.173 0.421l0.052 0.126 0.047 0.116 0.041 0.1c0.036 0.099 0.062 0.202 0.087 0.304H40c0.176 -0.527 0.176 -0.527 0.252 -0.71l0.052 -0.126 0.055 -0.132 0.059 -0.142q0.063 -0.151 0.126 -0.302 0.134 -0.322 0.267 -0.644l0.137 -0.33a374.948 374.948 0 0 0 0.625 -1.517l0.103 -0.25L41.979 51.354l0.407 -0.993 0.051 -0.125a874.219 874.219 0 0 1 0.933 -2.264 790.417 790.417 0 0 0 0.858 -2.083l0.051 -0.125L44.635 44.896l0.407 -0.993 0.051 -0.125a874.219 874.219 0 0 1 0.933 -2.264 790.417 790.417 0 0 0 0.858 -2.083l0.051 -0.125L47.292 38.438l0.407 -0.993 0.051 -0.125c0.309 -0.755 0.621 -1.508 0.932 -2.262 0.424 -1.025 0.845 -2.052 1.266 -3.078" fill="#DB1CA7"/></svg>
