<svg viewBox="0 0 40 40" id="Message_And_Communication_Icons" version="1.1" xml:space="preserve" xmlns="http://www.w3.org/2000/svg" xmlns:xlink="http://www.w3.org/1999/xlink" fill="#000000" style="--darkreader-inline-fill: #000000;" data-darkreader-inline-fill="" width="40" height="40"><g id="SVGRepo_bgCarrier" stroke-width="0"/><g id="SVGRepo_tracerCarrier" stroke-linecap="round" stroke-linejoin="round"/><g id="SVGRepo_iconCarrier"><g><g><g><g><path height="3.2" style="fill: rgb(77, 224, 249); --darkreader-inline-fill: #51e1f9;" width="13.2" x="29" y="30.1" data-darkreader-inline-fill="" d="M23.2 24.08h10.56v2.56H23.2z"/></g></g><g><g><path points="38.8,20.3 42.3,18 42.3,33.3 38.8,33.3 " style="fill: rgb(77, 224, 249); --darkreader-inline-fill: #51e1f9;" data-darkreader-inline-fill="" d="m31.04 16.24 2.8 -1.84v12.24h-2.8Z"/></g></g><g><g><path d="M33.28 26.08H13.12v-13.2h20.16zm-19.2 -0.96h18.24v-11.28H14.08z" style="fill: rgb(13, 95, 195); --darkreader-inline-fill: #5aacf4;" data-darkreader-inline-fill=""/></g></g><g><g><path points="29,25 16.7,17.2 17.3,16.2 29,23.6 40.7,16.2 41.3,17.2 " style="fill: rgb(13, 95, 195); --darkreader-inline-fill: #5aacf4;" data-darkreader-inline-fill="" d="m23.2 20 -9.84 -6.24 0.48 -0.8 9.36 5.92 9.36 -5.92 0.48 0.8Z"/></g></g></g><g><g><path height="1.2" style="fill: rgb(13, 95, 195); --darkreader-inline-fill: #5aacf4;" width="3.1" x="13.9" y="24.4" data-darkreader-inline-fill="" d="M11.12 19.52h2.48v0.96H11.12z"/></g></g><g><g><path height="1.2" style="fill: rgb(13, 95, 195); --darkreader-inline-fill: #5aacf4;" width="6.3" x="10.7" y="27.9" data-darkreader-inline-fill="" d="M8.56 22.32h5.04v0.96H8.56z"/></g></g><g><g><path height="1.2" style="fill: rgb(13, 95, 195); --darkreader-inline-fill: #5aacf4;" width="9.5" x="7.6" y="31.4" data-darkreader-inline-fill="" d="M6.08 25.12h7.6v0.96h-7.6z"/></g></g><g><g><path height="1.2" style="fill: rgb(13, 95, 195); --darkreader-inline-fill: #5aacf4;" width="1.6" x="10.8" y="20.4" data-darkreader-inline-fill="" d="M8.64 16.32h1.28v0.96h-1.28z"/></g></g></g></g></svg>
