<svg viewBox="0 0 30 30" fill="none" xmlns="http://www.w3.org/2000/svg" width="30" height="30"><g id="SVGRepo_bgCarrier" stroke-width="0"/><g id="SVGRepo_tracerCarrier" stroke-linecap="round" stroke-linejoin="round"/><g id="SVGRepo_iconCarrier"><path cx="24" cy="24" r="20" fill="#0077B5" style="--darkreader-inline-fill: #005f91;" data-darkreader-inline-fill="" d="M27.5 15A12.5 12.5 0 0 1 15 27.5A12.5 12.5 0 0 1 2.5 15A12.5 12.5 0 0 1 27.5 15z"/><path fill-rule="evenodd" clip-rule="evenodd" d="M11.734 8.928c0 0.778 -0.593 1.408 -1.519 1.408 -0.891 0 -1.484 -0.63 -1.465 -1.408 -0.019 -0.816 0.574 -1.427 1.482 -1.427s1.483 0.611 1.501 1.427M8.825 20.512V11.447h2.817v9.064z" fill="white" style="--darkreader-inline-fill: #181a1b;" data-darkreader-inline-fill=""/><path fill-rule="evenodd" clip-rule="evenodd" d="M13.9 14.341c0 -1.131 -0.037 -2.095 -0.075 -2.892h2.447l0.13 1.242h0.056c0.37 -0.575 1.297 -1.445 2.798 -1.445 1.853 0 3.244 1.223 3.244 3.891v5.376h-2.817v-5.023c0 -1.169 -0.408 -1.965 -1.427 -1.965 -0.779 0 -1.242 0.537 -1.427 1.056 -0.074 0.186 -0.111 0.444 -0.111 0.704v5.228h-2.817v-6.172z" fill="white" style="--darkreader-inline-fill: #181a1b;" data-darkreader-inline-fill=""/></g></svg>
