<svg width="100px" height="100px" viewBox="0 0 2 2" xmlns="http://www.w3.org/2000/svg" fill="none"><path fill="red" d="M1.839 0.579a0.219 0.219 0 0 0 -0.154 -0.154C1.548 0.389 1 0.389 1 0.389s-0.548 0 -0.685 0.036c-0.075 0.02 -0.134 0.079 -0.154 0.154C0.125 0.716 0.125 1 0.125 1s0 0.285 0.036 0.421c0.02 0.075 0.079 0.134 0.154 0.154C0.452 1.611 1 1.611 1 1.611s0.548 0 0.685 -0.036a0.219 0.219 0 0 0 0.154 -0.154C1.875 1.284 1.875 1 1.875 1s0 -0.284 -0.036 -0.421"/><path fill="#ffffff" d="m0.824 1.264 0.456 -0.262 -0.456 -0.264z"/></svg>
